<svg width="50" height="77" viewBox="0 0 50 77" fill="none" xmlns="http://www.w3.org/2000/svg">
<path d="M24.2514 1.49567C30.4715 1.49568 39.0905 5.02212 40.9739 8.93846C43.4269 14.0393 44.1069 68.2943 40.9128 70.6111C37.7187 72.9278 33.1383 75.3906 25.4052 75.3906C17.6721 75.3906 10.989 72.9278 8.80359 70.6111C7.4333 69.1584 6.71421 46.8414 7.04287 29.4173L4.62632 29.8069C4.7129 30.0234 4.83411 30.5861 4.62632 31.1056C4.36659 31.7549 2.2887 31.6251 1.76922 30.4563C1.35475 29.5237 5.10215 28.8581 7.04287 28.6398L7.05834 28.6381C7.26718 18.6221 7.83036 10.3812 8.82522 8.93846C11.0506 5.71127 18.0313 1.49565 24.2514 1.49567Z" fill="#E77158"/>
<path d="M45.7436 31.1056C46.0033 31.7549 48.0812 31.6251 48.6007 30.4563C49.0152 29.5237 45.2678 28.8581 43.3271 28.6398V29.4173L45.7436 29.8069C45.657 30.0234 45.5358 30.5861 45.7436 31.1056Z" fill="#E77158"/>
<path d="M7.05834 28.6381C7.26718 18.6221 7.83036 10.3812 8.82522 8.93845C11.0506 5.71127 18.0313 1.49565 24.2514 1.49567C30.4715 1.49568 39.0905 5.02212 40.9739 8.93845C43.4269 14.0393 44.1069 68.2943 40.9128 70.6111C37.7187 72.9278 33.1383 75.3906 25.4052 75.3906C17.6721 75.3906 10.989 72.9278 8.80358 70.6111C7.4333 69.1584 6.71421 46.8414 7.04287 29.4173M7.05834 28.6381C7.05295 28.8967 7.04779 29.1565 7.04287 29.4173M7.05834 28.6381C7.0532 28.6387 7.04804 28.6393 7.04287 28.6398C5.10215 28.8581 1.35475 29.5237 1.76922 30.4563C2.2887 31.6251 4.36659 31.7549 4.62632 31.1056C4.83411 30.5861 4.7129 30.0234 4.62632 29.8069C4.62632 29.8069 6.09915 29.5695 7.04287 29.4173M48.6007 30.4563C48.0812 31.6251 46.0033 31.7549 45.7436 31.1056C45.5358 30.5861 45.657 30.0234 45.7436 29.8069L43.3271 29.4173V28.6398C45.2678 28.8581 49.0152 29.5237 48.6007 30.4563Z" stroke="#AB432C" stroke-width="2"/>
<path d="M11.0812 35.4506C9.27187 36.0342 7.4625 25.6744 9.27186 23.048C10.1861 21.721 17.694 18.4189 24.9098 18.3789C31.9749 18.3396 38.7493 21.5321 39.7723 23.048C41.8401 26.1122 40.1601 36.472 38.4799 35.4506C37.666 34.9557 31.1178 33.8048 24.9098 33.8455C18.3036 33.8889 12.014 35.1497 11.0812 35.4506Z" fill="#63666C" stroke="#1E1E1E" stroke-width="2"/>
<path d="M12.1674 55.6636C10.8122 56.6622 10.2128 64.2453 10.8643 65.0254C11.5159 65.8056 20.377 66.4297 24.8076 66.4297C29.2382 66.4297 38.2296 65.9616 38.8812 65.0254C39.5327 64.0892 39.0636 57.1615 37.7084 55.6636C36.0143 53.7912 13.8615 54.4153 12.1674 55.6636Z" fill="#63666C" stroke="#1E1E1E" stroke-width="2"/>
<ellipse cx="35.7335" cy="6.49538" rx="0.94058" ry="2.42735" transform="rotate(-55.7881 35.7335 6.49538)" fill="#FFD6A6"/>
<ellipse cx="0.94058" cy="2.42735" rx="0.94058" ry="2.42735" transform="matrix(-0.562255 -0.826964 -0.826964 0.562255 16.4518 5.90842)" fill="#FFD6A6"/>
<ellipse cx="0.976362" cy="2.62303" rx="0.976362" ry="2.62303" transform="matrix(0.604432 0.796657 0.853976 -0.520312 34.1678 72.0164)" fill="#FFD6A6"/>
<ellipse cx="0.976362" cy="2.62303" rx="0.976362" ry="2.62303" transform="matrix(-0.604432 0.796657 -0.853976 -0.520312 15.4814 72.0164)" fill="#FFD6A6"/>
</svg>
